# xmcd CD database file
#
# Track frame offsets:
#	150
#	26075
#	55902
#	83377
#	115762
#	149507
#	172240
#	195052
#	222727
#	241930
#	263915
#	286807
#
# Disc length: 4156 seconds
#
# Revision: 3
# Processed by: cddbd v1.5.1PL0 Copyright (c) Steve Scherf et al.
# Submitted via: CDex 1.51
#
DISCID=aa103a0c
DTITLE=Mal Waldron, Richie Beirach. Kazuo Yasiro, Eiji Kitamura - Digital Jazz Standards Box 50:4
DYEAR=1986
DGENRE=Jazz
TTITLE0=ALL ALONE
TTITLE1=JITTERBUG WALTZ
TTITLE2=AVALON
TTITLE3=MY OLD FLAME
TTITLE4=AUTUMN IN NEW YORK
TTITLE5=NOBODY'S SWEETHEART
TTITLE6=INFANT EYES
TTITLE7=CANDY
TTITLE8=FIRE WALTZ
TTITLE9=EBB TIDE
TTITLE10=STOMPIN' AT THE SAVOY
TTITLE11=LEFT ALONE
EXTD=YEAR: 1986
EXTT0=
EXTT1=
EXTT2=
EXTT3=
EXTT4=
EXTT5=
EXTT6=
EXTT7=
EXTT8=
EXTT9=
EXTT10=
EXTT11=
PLAYORDER=
